# xmcd CD database file generated by OrangeCD 6.1
#
# Track frame offsets:
#	150
#	27333
#	66624
#	88958
#	107113
#	139707
#	160227
#	178792
#	202711
#	216009
#	237172
#	276835
#
# Disc length: 4353 seconds
#
# Revision: 1
# Processed by: cddbd v1.5.2PL0 Copyright (c) Steve Scherf et al.
# Submitted via: OrangeCD 6.1
#
DISCID=af10ff0c
DTITLE=Joanna Connor - Nothing but the blues
DYEAR=2001
DGENRE=Blues
TTITLE0=Rock me baby
TTITLE1=I just wanna make love to you
TTITLE2=Howlin' new
TTITLE3=Big girl blues
TTITLE4=Doctor Feelgood
TTITLE5=Little bit
TTITLE6=Dust my broom
TTITLE7=You're so fine now
TTITLE8=Meditations
TTITLE9=Got to have you
TTITLE10=They love each other
TTITLE11=Walking blues
EXTD=
EXTT0=
EXTT1=
EXTT2=
EXTT3=
EXTT4=
EXTT5=
EXTT6=
EXTT7=
EXTT8=
EXTT9=
EXTT10=
EXTT11=
PLAYORDER=
